<?xml version="1.0" standalone="no"?>
<!DOCTYPE svg PUBLIC "-//W3C//DTD SVG 20010904//EN"
 "http://www.w3.org/TR/2001/REC-SVG-20010904/DTD/svg10.dtd">
<svg version="1.0" xmlns="http://www.w3.org/2000/svg"
 width="278.000000pt" height="278.000000pt" viewBox="0 0 278.000000 278.000000"
 preserveAspectRatio="xMidYMid meet">
<metadata>
Created by potrace 1.14, written by Peter Selinger 2001-2017
</metadata>
<g transform="translate(0.000000,278.000000) scale(0.100000,-0.100000)"
fill="#000000" stroke="none">
<path d="M1271 2663 c-13 -2 -249 -103 -525 -224 -561 -245 -582 -257 -522
-312 13 -12 249 -120 525 -240 407 -178 512 -219 563 -225 130 -15 146 -10
687 227 277 121 512 228 522 237 24 21 24 56 1 76 -16 15 -117 60 -772 346
l-265 116 -95 2 c-52 1 -106 0 -119 -3z m102 -236 c15 -10 26 -24 24 -30 -2
-6 -35 -17 -73 -24 -94 -17 -194 -69 -210 -108 -10 -24 -10 -37 1 -62 l14 -32
115 50 114 51 46 -17 c25 -10 46 -21 46 -25 0 -4 -54 -31 -121 -60 -108 -48
-119 -55 -103 -67 28 -20 44 -17 169 37 64 28 126 50 136 50 32 0 94 -29 83
-40 -5 -5 -56 -29 -114 -53 l-104 -45 59 -7 c32 -4 95 -5 139 -2 127 10 212
42 277 103 l35 35 63 -15 c35 -8 66 -17 69 -20 12 -13 -56 -69 -123 -102 -152
-74 -384 -103 -572 -70 -86 15 -95 15 -127 -1 -33 -15 -38 -15 -80 1 -50 19
-57 31 -26 41 51 16 -15 46 -71 31 -39 -10 -74 -4 -104 18 -19 14 -19 15 10
27 17 7 32 14 34 15 1 2 -9 18 -23 37 -49 64 -43 118 21 179 50 48 215 114
323 130 28 4 34 3 73 -25z"/>
<path d="M121 1904 c-11 -14 -23 -40 -26 -58 -3 -17 -5 -272 -3 -566 l3 -535
31 -55 c17 -30 46 -67 65 -82 43 -34 968 -438 1004 -438 16 0 38 12 56 29 l29
29 0 554 c0 610 0 607 -61 681 -39 47 -21 38 -553 271 -485 212 -507 219 -545
170z m592 -394 c65 -24 161 -89 165 -112 2 -9 -4 -33 -12 -53 l-16 -36 -32 24
c-47 36 -114 67 -141 67 -40 0 -59 -23 -64 -77 l-5 -50 103 -45 104 -46 3 -51
c2 -28 -1 -51 -7 -51 -5 0 -38 13 -73 29 -107 48 -110 48 -106 10 3 -36 3 -35
111 -83 l77 -35 0 -51 c0 -59 4 -59 -108 -9 -35 16 -66 29 -68 29 -2 0 -4 -9
-4 -21 0 -25 -16 -56 -43 -86 l-20 -22 44 -19 c193 -83 266 -116 277 -124 15
-13 17 -118 1 -118 -12 0 -423 177 -491 212 -35 17 -38 22 -38 61 0 42 1 43
48 59 53 19 87 50 97 89 6 23 1 27 -54 51 l-61 27 0 51 c0 49 1 51 23 44 12
-3 34 -13 49 -20 35 -18 38 -18 38 5 0 36 -13 52 -61 77 -47 23 -49 26 -49 68
0 23 3 45 6 48 3 4 21 0 39 -8 45 -19 45 -19 45 19 0 71 36 137 85 157 34 15
82 11 138 -10z"/>
<path d="M2505 1921 c-11 -5 -222 -97 -470 -205 -479 -210 -500 -222 -548
-311 -22 -39 -22 -48 -25 -592 -2 -470 0 -557 12 -588 17 -39 55 -60 97 -51
15 3 237 97 494 210 504 221 517 228 561 321 l24 50 0 553 c0 568 -1 580 -39
609 -18 14 -76 16 -106 4z m-377 -437 l3 -50 62 4 c106 6 121 -24 52 -106 -24
-29 -32 -32 -83 -32 -112 0 -255 -97 -221 -151 6 -11 44 -15 156 -19 151 -6
161 -8 200 -43 55 -49 33 -162 -48 -251 -27 -30 -65 -65 -84 -76 -31 -19 -34
-25 -37 -78 l-3 -57 -54 -27 c-80 -41 -91 -38 -91 21 l0 49 -42 -10 c-51 -11
-122 -6 -143 12 -13 10 -13 16 0 39 7 15 27 42 43 59 25 27 35 31 61 26 62
-13 211 45 257 99 32 38 32 75 -2 87 -14 6 -79 10 -145 10 -130 0 -175 11
-203 51 -37 53 -8 154 69 237 29 32 65 64 79 71 23 13 26 21 26 66 0 37 5 57
18 68 21 19 103 56 117 53 6 -1 11 -25 13 -52z"/>
</g>
</svg>
